<svg width="31" height="31" viewBox="0 0 31 31" fill="none" xmlns="http://www.w3.org/2000/svg">
<path d="M11.6252 12.9167L15.8335 16.073C16.3741 16.4784 17.1357 16.3987 17.5806 15.8902L25.8335 6.45837" stroke="#FFF2F2" stroke-width="2.58333" stroke-linecap="round"/>
<path d="M27.125 15.5C27.125 17.929 26.3642 20.2969 24.9493 22.2713C23.5345 24.2457 21.5368 25.7273 19.2367 26.5081C16.9367 27.2888 14.4498 27.3295 12.1254 26.6244C9.80106 25.9193 7.75593 24.5039 6.27727 22.5769C4.79861 20.6498 3.9607 18.308 3.88122 15.8804C3.80175 13.4527 4.4847 11.0611 5.83417 9.0415C7.18363 7.02188 9.13181 5.4757 11.4051 4.62009C13.6784 3.76449 16.1626 3.64245 18.5088 4.27111" stroke="#FFF2F2" stroke-width="2.58333" stroke-linecap="round"/>
</svg>
