<svg width="24" height="24" viewBox="0 0 24 24" fill="none" xmlns="http://www.w3.org/2000/svg">
<path d="M5.46937 17.4694L16.1897 6.75007H8.25C8.05109 6.75007 7.86032 6.67105 7.71967 6.5304C7.57902 6.38975 7.5 6.19898 7.5 6.00007C7.5 5.80116 7.57902 5.61039 7.71967 5.46974C7.86032 5.32909 8.05109 5.25007 8.25 5.25007H18C18.1989 5.25007 18.3897 5.32909 18.5303 5.46974C18.671 5.61039 18.75 5.80116 18.75 6.00007V15.7501C18.75 15.949 18.671 16.1397 18.5303 16.2804C18.3897 16.4211 18.1989 16.5001 18 16.5001C17.8011 16.5001 17.6103 16.4211 17.4697 16.2804C17.329 16.1397 17.25 15.949 17.25 15.7501V7.81038L6.53063 18.5307C6.46094 18.6004 6.37822 18.6557 6.28717 18.6934C6.19613 18.7311 6.09855 18.7505 6 18.7505C5.90145 18.7505 5.80387 18.7311 5.71283 18.6934C5.62178 18.6557 5.53906 18.6004 5.46937 18.5307C5.39969 18.461 5.34442 18.3783 5.30671 18.2872C5.26899 18.1962 5.24958 18.0986 5.24958 18.0001C5.24958 17.9015 5.26899 17.8039 5.30671 17.7129C5.34442 17.6219 5.39969 17.5391 5.46937 17.4694Z" fill="white"/>
</svg>
