<svg width="21" height="21" viewBox="0 0 21 21" fill="none" xmlns="http://www.w3.org/2000/svg">
<path fill-rule="evenodd" clip-rule="evenodd" d="M10.653 13.6898C12.9541 13.6898 14.8194 11.8244 14.8194 9.52331C14.8194 7.22224 12.9541 5.35685 10.653 5.35685C8.35191 5.35685 6.48652 7.22224 6.48652 9.52331C6.48652 11.8244 8.35191 13.6898 10.653 13.6898ZM10.653 12.5655C12.3331 12.5655 13.6952 11.2035 13.6952 9.52331C13.6952 7.84316 12.3331 6.48113 10.653 6.48113C8.97284 6.48113 7.61081 7.84316 7.61081 9.52331C7.61081 11.2035 8.97284 12.5655 10.653 12.5655Z" fill="#FFF2F2"/>
<path fill-rule="evenodd" clip-rule="evenodd" d="M0.236816 4.10029C0.236816 3.47937 0.740175 2.97601 1.3611 2.97601H7.43417C7.77571 2.97601 8.09873 2.82076 8.31209 2.55406L9.47745 1.09736C9.92753 0.534765 10.7832 0.534766 11.2333 1.09736L12.3986 2.55406C12.612 2.82076 12.935 2.97601 13.2766 2.97601H19.3496C19.9706 2.97601 20.4739 3.47937 20.4739 4.10029V19.708C20.4739 20.3289 19.9706 20.8323 19.3496 20.8323H1.3611C0.740176 20.8323 0.236816 20.3289 0.236816 19.708V4.10029ZM19.3496 4.10029V19.708H17.4647V19.1459C17.4647 16.9726 15.703 15.2109 13.5297 15.2109H7.77606C5.60282 15.2109 3.84107 16.9726 3.84107 19.1459V19.708H1.3611V4.10029L7.43417 4.10029C8.11725 4.10029 8.76329 3.78979 9.19001 3.2564L10.3554 1.7997L11.5207 3.2564C11.9474 3.78979 12.5935 4.10029 13.2766 4.10029H19.3496ZM4.96535 19.708H16.3404V19.1459C16.3404 17.5935 15.0821 16.3351 13.5297 16.3351H7.77606C6.22375 16.3351 4.96535 17.5935 4.96535 19.1459V19.708Z" fill="#FFF2F2"/>
</svg>
