<svg width="19" height="19" viewBox="0 0 19 19" fill="none" xmlns="http://www.w3.org/2000/svg">
<path fill-rule="evenodd" clip-rule="evenodd" d="M11.7706 1.81078H7.27343V6.30783H11.7706V1.81078ZM17.392 1.81078V6.30783H12.8949V1.81078H17.392ZM18.5163 6.30791V7.43211V7.43219V11.9292C18.5163 11.9293 18.5163 11.9293 18.5163 11.9293V13.0536V17.5507C18.5163 18.1716 18.013 18.675 17.392 18.675H12.8949H11.7706C11.7706 18.675 11.7706 18.675 11.7706 18.675H7.27343H7.27337H6.14909H1.65195C1.03103 18.675 0.527671 18.1716 0.527671 17.5507V13.0536V13.0535V11.9292V7.43222H0.527588V6.30794V1.81081C0.527588 1.18988 1.03095 0.686523 1.65187 0.686523H6.149H6.14914V0.686496H7.27343H11.7706H11.7706H12.8948H12.8949H17.392C18.013 0.686496 18.5163 1.18985 18.5163 1.81078V6.30791ZM12.8949 11.9292V7.43219H17.392V11.9292L12.8949 11.9292ZM7.27343 7.43219H11.7706V11.9292L7.27343 11.9292V7.43219ZM1.65195 6.30783H6.149V1.81081H1.65187L1.65187 6.30783H1.65195ZM1.65195 11.9292L1.65195 7.43222H6.149H6.14909L6.14909 11.9292L1.65195 11.9292ZM1.65195 13.0536H6.14909L6.14909 17.5507H1.65195V13.0536ZM11.7706 13.0536H7.27343V17.5507H11.7706V13.0536ZM12.8949 13.0536H17.392V17.5507H12.8949V13.0536Z" fill="#FFF2F2"/>
</svg>
