<svg width="24" height="24" viewBox="0 0 24 24" fill="none" xmlns="http://www.w3.org/2000/svg">
<path fill-rule="evenodd" clip-rule="evenodd" d="M12 21C7.02944 21 3 16.9706 3 12C3 7.02944 7.02944 3 12 3C16.9706 3 21 7.02944 21 12C21 16.9706 16.9706 21 12 21ZM12 6.66667C11.2636 6.66667 10.6667 7.26362 10.6667 8C10.6667 8.73638 11.2636 9.33333 12 9.33333H12.01C12.7464 9.33333 13.3433 8.73638 13.3433 8C13.3433 7.26362 12.7464 6.66667 12.01 6.66667H12ZM10.5 10.6667C9.76362 10.6667 9.16667 11.2636 9.16667 12C9.16667 12.7364 9.76362 13.3333 10.5 13.3333H10.6667V16C10.6667 16.7364 11.2636 17.3333 12 17.3333H14C14.7364 17.3333 15.3333 16.7364 15.3333 16C15.3333 15.2636 14.7364 14.6667 14 14.6667H13.3333V12C13.3333 11.2636 12.7364 10.6667 12 10.6667H10.5Z" fill="#FFF2F2"/>
</svg>
